Coordinates
version=1
nRows=22
nColumns=26
inDegrees=yes

Units are S.I. units (second, meters, Newtons, ...)
If the header above contains a line with 'inDegrees', this indicates whether rotational values are in degrees (yes) or radians (no).

endheader
time	pelvis_tilt	pelvis_list	pelvis_rotation	pelvis_tx	pelvis_ty	pelvis_tz	hip_flexion_r	hip_adduction_r	hip_rotation_r	knee_angle_r	knee_angle_r_beta	hip_flexion_l	hip_adduction_l	hip_rotation_l	knee_angle_l	knee_angle_l_beta	lumbar_extension	lumbar_bending	lumbar_rotation	ankle_angle_r	subtalar_angle_r	mtp_angle_r	ankle_angle_l	subtalar_angle_l	mtp_angle_l
      0.36000000	     -8.05579950	     -3.91645651	      8.65647609	      0.99455184	      0.78320221	     -0.28129770	     -2.25702566	      7.16476985	     -7.15791993	      0.73978662	      0.01291171	     34.57395019	     -3.78846159	     -0.05044141	     27.97559315	      0.48826621	     -8.41929819	      3.17820004	      2.02555558	      6.16617599	      2.38709404	      0.00000000	     -2.02287977	     -9.45346328	      0.00000000
      0.37000000	     -8.46812074	     -4.51698709	      8.00785630	      1.00826050	      0.78103678	     -0.28206368	     -2.91306097	      7.77799569	     -7.12244821	      0.67880396	      0.01184736	     35.03829716	     -4.05674722	     -0.18578975	     23.31001933	      0.40683659	     -8.08227576	      3.97066006	      2.01539629	      6.33575712	      3.06970304	      0.00000000	     -1.39599126	     -7.78013531	      0.00000000
      0.38000000	     -8.19752004	     -4.71368122	      7.37587643	      1.02249461	      0.77954947	     -0.28303826	     -4.40619664	      8.00354653	     -7.49816317	      0.65751576	      0.01147581	     34.38839230	     -4.06991903	     -0.62431460	     18.29342726	      0.31928054	     -8.62512032	      4.41024907	      2.05782049	      6.95637544	      4.66687548	      0.00000000	     -0.52583696	     -5.75373631	      0.00000000
      0.39000000	     -8.29949667	     -5.23696112	      6.76624338	      1.03667931	      0.77731852	     -0.28390100	     -5.43277965	      8.52189623	     -7.44417487	      0.65865670	      0.01149573	     34.22703321	     -4.31468220	     -0.54460005	     13.51880141	      0.23594760	     -8.67878064	      5.12592937	      2.04139672	      7.08606677	      5.37069038	      0.00000000	      0.04057876	     -4.00636960	      0.00000000
      0.40000000	     -8.49487482	     -6.00617307	      6.19255518	      1.05098153	      0.77467206	     -0.28477424	     -6.34133804	      9.26767622	     -7.18134762	      0.66324371	      0.01157579	     34.30101575	     -4.79468029	     -0.12670576	      9.24531168	      0.16136113	     -8.57694845	      6.12365938	      2.07583848	      7.09700736	      5.90880974	      0.00000000	      0.53141685	     -2.42669967	      0.00000000
      0.41000000	     -8.05544756	     -6.37503770	      5.68536725	      1.06588106	      0.77268691	     -0.28563695	     -8.01299430	      9.63894535	     -7.04078707	      0.69711513	      0.01216695	     33.49040410	     -5.00259564	     -0.17656505	      5.19893643	      0.09073856	     -9.25430469	      6.63711709	      2.20050339	      7.07825429	      6.50235111	      0.00000000	      0.76819413	     -1.16710829	      0.00000000
      0.42000000	     -8.15087777	     -7.10549592	      5.26063062	      1.08075392	      0.76981682	     -0.28645018	     -9.02650691	     10.31980952	     -6.66920090	      0.79750926	      0.01391916	     33.76329619	     -5.46378060	     -0.12340097	      2.55067743	      0.04451772	     -9.21092938	      7.49363576	      2.03649618	      6.85381455	      6.93709086	      0.00000000	      1.22639712	     -0.28959271	      0.00000000
      0.43000000	     -7.99441085	     -7.71967744	      4.98298808	      1.09583817	      0.76716679	     -0.28723251	    -10.27458168	     10.90713600	     -6.35856365	      0.97234405	      0.01697061	     34.06644099	     -5.79655171	     -0.55935359	      1.16799288	      0.02038532	     -9.47518628	      8.17384276	      1.99887136	      6.54373889	      7.12017995	      0.00000000	      1.76355074	      0.31832825	      0.00000000
      0.44000000	     -7.57783041	     -8.15262401	      4.66728391	      1.11126813	      0.76484720	     -0.28774677	    -11.76736889	     11.29855895	     -5.74591347	      1.26577936	      0.02209202	     34.22065374	     -6.06627949	     -1.85520901	      0.84709747	      0.01478464	    -10.04695445	      8.55150902	      2.16592520	      5.95148377	      6.82500062	      0.00000000	      2.87869784	      1.37841274	      0.00000000
      0.45000000	     -7.49658522	     -8.41860344	      4.38935115	      1.12707448	      0.76228895	     -0.28858319	    -12.69821294	     11.41898509	     -5.61945313	      1.98738579	      0.03468643	     34.50669647	     -6.06744925	     -2.51813104	      0.80638912	      0.01407415	    -10.12976442	      8.74611183	      1.98858551	      5.48614602	      6.89465547	      0.00000000	      3.00846194	      0.89990047	      0.00000000
      0.46000000	     -6.86904072	     -8.20175311	      3.90086306	      1.14332111	      0.76059101	     -0.28936115	    -14.09202504	     10.94054900	     -5.36740713	      3.06722600	      0.05353319	     33.80925921	     -5.81852675	     -3.08641332	      0.93183121	      0.01626352	    -10.89700722	      8.38187647	      2.41966074	      5.00467882	      6.90890494	      0.00000000	      2.18338977	     -0.85686647	      0.00000000
      0.47000000	     -6.31202665	     -7.80257929	      3.44819268	      1.15987357	      0.75892804	     -0.29032363	    -15.10711935	     10.19134792	     -5.63109079	      4.73344070	      0.08261413	     33.05736999	     -5.35159199	     -3.34566499	      1.43751694	      0.02508940	    -11.50986205	      7.79882598	      2.75407867	      4.56205230	      7.06110322	      0.00000000	      0.75111623	     -3.24050145	      0.00000000
      0.48000000	     -5.80501633	     -7.31751690	      3.05258819	      1.17655113	      0.75728378	     -0.29137704	    -15.75249359	      9.28195735	     -6.33596785	      6.94105846	      0.12114432	     32.41966945	     -4.77464416	     -3.27234599	      2.55954074	      0.04467241	    -12.01048918	      7.08213266	      2.90994514	      3.91431392	      7.31578321	      0.00000000	     -1.24069138	     -6.13102373	      0.00000000
      0.49000000	     -5.23328725	     -6.91804826	      2.81446046	      1.19327127	      0.75573154	     -0.29224553	    -16.23062264	      8.48930252	     -7.27102177	      9.44085539	      0.16477401	     32.08445206	     -4.31436681	     -3.56783786	      4.76119431	      0.08309852	    -12.54957055	      6.40195686	      2.93828157	      2.54797560	      6.92704030	      0.00000000	     -2.57677276	     -7.69949202	      0.00000000
      0.50000000	     -5.03352293	     -6.30399693	      2.62824485	      1.20993798	      0.75395405	     -0.29366372	    -15.92700114	      7.31717270	     -8.28171848	     12.65696207	      0.22090566	     32.05532946	     -3.49115368	     -3.09574682	      6.99439445	      0.12207521	    -12.60404672	      5.67015451	      3.01942191	      1.05169968	      6.60074462	      0.00000000	     -5.42083024	    -10.63624115	      0.00000000
      0.51000000	     -4.36632958	     -5.65383453	      2.59731175	      1.22667185	      0.75284265	     -0.29475274	    -15.98155306	      6.15774524	     -9.40979421	     15.95024709	      0.27838433	     31.68252946	     -2.76161621	     -3.22402606	      9.71965701	      0.16964002	    -13.21854797	      4.77181303	      2.99421435	     -1.50018996	      5.82227922	      0.00000000	     -6.84085059	    -11.36247281	      0.00000000
      0.52000000	     -4.49141232	     -4.83502135	      2.39876759	      1.24315556	      0.75122772	     -0.29579304	    -14.78779330	      4.69694447	    -10.24261031	     19.87207394	      0.34683312	     32.05603928	     -1.83977569	     -2.70383840	     12.30227967	      0.21471529	    -12.86937380	      3.64046781	      2.98542091	     -4.49022933	      4.13504434	      0.00000000	     -9.42832191	    -13.37418235	      0.00000000
      0.53000000	     -4.31190053	     -3.85690603	      2.40518842	      1.25958757	      0.75023691	     -0.29693437	    -13.77132757	      3.07676484	    -11.17027515	     23.86776681	      0.41657112	     32.03605355	     -0.76848336	     -2.38035265	     14.82956052	      0.25882466	    -12.88929417	      2.35230452	      2.75287350	     -8.06804797	      2.55541389	      0.00000000	    -10.79408713	    -14.32489143	      0.00000000
      0.54000000	     -4.24756554	     -2.86977457	      2.45391767	      1.27574269	      0.74950490	     -0.29806413	    -12.41274676	      1.44437236	    -11.80689216	     28.01531477	      0.48895948	     32.10760098	      0.28700566	     -2.09251078	     17.34225412	      0.30267943	    -12.80658693	      1.08217250	      2.55072386	    -11.83997270	      1.02604863	      0.00000000	    -11.45325495	    -15.17224685	      0.00000000
      0.55000000	     -4.21602321	     -1.82813700	      2.55959602	      1.29169034	      0.74912829	     -0.29912601	    -10.86836735	     -0.20145213	    -12.16444859	     32.16573182	      0.56139793	     32.10051124	      1.35159019	     -1.95111789	     19.72555695	      0.34427592	    -12.71340429	     -0.26279235	      2.23268244	    -15.29314323	     -0.21358569	      0.00000000	    -11.17810121	    -15.73057034	      0.00000000
      0.56000000	     -4.19690619	     -0.81033298	      2.73121789	      1.30737061	      0.74922496	     -0.30016474	     -9.17055912	     -1.74780040	    -12.24565156	     36.23231036	      0.63237311	     31.93094186	      2.36341432	     -1.93456244	     21.84700601	      0.38130219	    -12.63181648	     -1.56086441	      1.80977217	    -17.98940989	     -1.02741405	      0.00000000	    -10.14808580	    -16.00425187	      0.00000000
      0.57000000	     -4.14691491	      0.10359659	      3.00117213	      1.32283265	      0.74981260	     -0.30111931	     -7.43099374	     -3.04770222	    -12.05460260	     40.05916153	      0.69916426	     31.55823706	      3.26170773	     -2.04319612	     23.71862594	      0.41396812	    -12.61029778	     -2.72481162	      1.31476382	    -19.61457971	     -1.37482887	      0.00000000	     -8.53420828	    -16.17451248	      0.00000000
